<?xml version="1.0" encoding="UTF-8"?>
<svg version="1.1" xmlns="http://www.w3.org/2000/svg" width="579" height="637">
<path d="M0 0 C1.33949707 0.45693237 1.33949707 0.45693237 2.70605469 0.9230957 C13.92158253 4.87803478 24.59582611 10.0004415 35.3125 15.125 C37.40195809 16.11019335 39.49180381 17.09456499 41.58203125 18.078125 C61.63004495 27.55604673 81.19614738 37.78939796 100.44921875 48.7890625 C104.39453903 51.04220974 108.35495031 53.26434241 112.33203125 55.4609375 C126.54028716 63.31596341 140.46274107 71.55672871 154.29264832 80.05296326 C157.89456735 82.26382899 161.51105338 84.4481531 165.140625 86.61328125 C254.55815344 140.08540142 254.55815344 140.08540142 261.4375 165.25 C265.31287752 181.62203823 266.60214519 198.39635652 267.9375 215.125 C268.0000296 215.9024054 268.0625592 216.67981079 268.12698364 217.48077393 C269.88565747 239.62727492 270.55872539 261.79112826 270.9375 284 C270.95962555 285.28803528 270.9817511 286.57607056 271.00454712 287.90313721 C272.84293963 400.47211198 272.84293963 400.47211198 263.375 454.5 C263.22949707 455.34304688 263.08399414 456.18609375 262.93408203 457.0546875 C261.00350119 467.12230907 257.56507017 474.84511318 250.3125 482.125 C249.81081299 482.64715088 249.30912598 483.16930176 248.79223633 483.70727539 C244.67037598 487.94199966 240.34599417 491.64013405 235.625 495.1875 C234.89514893 495.73986328 234.16529785 496.29222656 233.41333008 496.86132812 C218.17752516 508.30467426 202.36499553 518.87049301 186.3125 529.125 C185.54647461 529.61677734 184.78044922 530.10855469 183.99121094 530.61523438 C15.97305301 638.40589843 15.97305301 638.40589843 -24.6875 632.125 C-61.16380512 623.64811219 -97.63806409 601.80599778 -130.07519531 583.58935547 C-132.9160431 581.99688771 -135.76612045 580.42174972 -138.6171875 578.84765625 C-152.98943214 570.88820044 -167.17075061 562.62881098 -181.25927734 554.17822266 C-184.65348171 552.14537415 -188.05504519 550.12525993 -191.45703125 548.10546875 C-212.91733724 535.29309394 -233.63800568 521.40108593 -254.25 507.2734375 C-254.89575989 506.83174225 -255.54151978 506.390047 -256.20684814 505.93496704 C-267.09111604 498.45329495 -277.20042963 490.30603584 -286.6875 481.125 C-287.75871094 480.12726563 -287.75871094 480.12726563 -288.8515625 479.109375 C-296.77239488 471.08742561 -298.23194275 458.95519358 -299.75 448.1875 C-299.91282471 447.05997314 -300.07564941 445.93244629 -300.2434082 444.77075195 C-301.64803319 434.48185676 -302.56024137 424.16240596 -303.375 413.8125 C-303.43575714 413.04422882 -303.49651428 412.27595764 -303.55911255 411.48440552 C-305.27312727 389.43389356 -305.93544619 367.35958416 -306.3125 345.25 C-306.33462555 343.96163239 -306.3567511 342.67326477 -306.37954712 341.34585571 C-309.16795576 170.55419058 -309.16795576 170.55419058 -287.25 147.1875 C-281.40853037 141.74776712 -275.03821578 136.94566513 -268.6875 132.125 C-268.03507324 131.62291016 -267.38264648 131.12082031 -266.71044922 130.60351562 C-244.52089646 113.56176805 -220.60781 98.59754592 -196.6875 84.125 C-195.88554199 83.63805664 -195.08358398 83.15111328 -194.25732422 82.64941406 C-36.9019741 -12.799235 -36.9019741 -12.799235 0 0 Z M-111.6875 135.125 C-112.70490644 136.03867738 -113.72316509 136.95140652 -114.7421875 137.86328125 C-120.43961799 142.98341948 -125.84539004 148.17158611 -130.6875 154.125 C-131.77611328 155.43404297 -131.77611328 155.43404297 -132.88671875 156.76953125 C-136.93534558 160.96714685 -136.93534558 160.96714685 -138.6875 166.125 C-136.02831834 167.01139389 -134.20685359 167.30489025 -131.45703125 167.44140625 C-130.65458984 167.48330078 -129.85214844 167.52519531 -129.02539062 167.56835938 C-128.19201172 167.60767578 -127.35863281 167.64699219 -126.5 167.6875 C-125.2325293 167.75227539 -125.2325293 167.75227539 -123.93945312 167.81835938 C-121.85565567 167.92431518 -119.77159897 168.0251502 -117.6875 168.125 C-114.79385858 311.55098893 -114.79385858 311.55098893 -116.1875 380.5625 C-116.65077804 402.30115715 -116.65077804 402.30115715 -116.91967773 424.04275513 C-116.93141708 425.49664525 -116.94837607 426.95050405 -116.97094727 428.40426636 C-117.0002248 430.35528558 -117.00858132 432.30658633 -117.015625 434.2578125 C-117.0249707 435.32918457 -117.03431641 436.40055664 -117.04394531 437.50439453 C-116.624322 440.58948813 -116.1032768 441.25008538 -113.6875 443.125 C-111.59717032 443.58387162 -111.59717032 443.58387162 -109.26367188 443.52905273 C-108.37264771 443.54173691 -107.48162354 443.55442108 -106.56359863 443.56748962 C-105.60417358 443.56455399 -104.64474854 443.56161835 -103.65625 443.55859375 C-102.66878784 443.5638356 -101.68132568 443.56907745 -100.66394043 443.57447815 C-98.5759373 443.58090236 -96.48789801 443.57955621 -94.39990234 443.57104492 C-91.19954238 443.56253203 -88.0009649 443.59129609 -84.80078125 443.62304688 C-82.77343804 443.62465883 -80.74609165 443.62408146 -78.71875 443.62109375 C-77.27961243 443.63794472 -77.27961243 443.63794472 -75.81140137 443.65513611 C-74.47486511 443.64106468 -74.47486511 443.64106468 -73.11132812 443.62670898 C-72.32761841 443.62654282 -71.54390869 443.62637665 -70.7364502 443.62620544 C-68.51337622 443.27918764 -68.51337622 443.27918764 -66.92755127 441.25857544 C-65.28548108 438.43330466 -65.4158705 436.62613333 -65.578125 433.37109375 C-65.65268921 431.54167236 -65.65268921 431.54167236 -65.72875977 429.67529297 C-65.76268829 429.00963318 -65.79661682 428.34397339 -65.83157349 427.65814209 C-66.01996321 423.93105415 -66.1532318 420.20183225 -66.29296875 416.47265625 C-66.32579453 415.62815918 -66.3586203 414.78366211 -66.3924408 413.91357422 C-66.89317985 400.44820054 -67.03833137 386.97228202 -67.25 373.5 C-67.394375 364.46625 -67.53875 355.4325 -67.6875 346.125 C-34.6875 346.125 -1.6875 346.125 32.3125 346.125 C31.9825 384.075 31.6525 422.025 31.3125 461.125 C27.0225 461.125 22.7325 461.125 18.3125 461.125 C15.97116165 461.39645952 13.62975975 461.69388191 11.3125 462.125 C10.9825 463.115 10.6525 464.105 10.3125 465.125 C18.38662253 479.31496907 33.95600801 492.7878569 46.3125 503.125 C47.07820312 503.80304688 47.84390625 504.48109375 48.6328125 505.1796875 C49.41398438 505.84226562 50.19515625 506.50484375 51 507.1875 C51.70511719 507.79722656 52.41023437 508.40695312 53.13671875 509.03515625 C55.28448315 510.42124821 55.28448315 510.42124821 57.63305664 509.43530273 C67.00089113 504.85423962 74.72511019 496.0330851 82.01171875 488.68652344 C83.56811197 487.11934916 85.13500283 485.56324128 86.703125 484.0078125 C95.42899198 475.77203269 95.42899198 475.77203269 102.3125 466.125 C102.07132979 463.92012888 102.07132979 463.92012888 101.3125 462.125 C96.4971176 461.38417194 91.89202712 461.06702999 87.015625 461.09375 C85.94473633 461.09826172 84.87384766 461.10277344 83.77050781 461.10742188 C82.95936523 461.11322266 82.14822266 461.11902344 81.3125 461.125 C80.33652379 427.13247504 80.15430715 393.15143994 80.18393159 359.14736354 C80.18769294 354.32666949 80.18634647 349.50599603 80.18212891 344.68530273 C80.15605059 314.12724626 80.28322899 283.58298705 81.00803947 253.03179836 C81.04055652 251.66000471 81.04055652 251.66000471 81.07373047 250.26049805 C81.09506105 249.36207971 81.11639164 248.46366137 81.13836861 247.53801823 C81.47400434 232.75725213 81.54069133 217.9713794 81.640625 203.1875 C81.65973529 202.00364826 81.65973529 202.00364826 81.67923164 200.79588032 C81.7036322 198.38030547 81.7036322 198.38030547 81.3125 195.125 C78.21491422 193.05994281 77.51100699 192.86959313 73.99633789 192.83447266 C72.6946743 192.8153331 72.6946743 192.8153331 71.36671448 192.79580688 C69.96509315 192.79246841 69.96509315 192.79246841 68.53515625 192.7890625 C67.57226181 192.7824057 66.60936737 192.7757489 65.61729431 192.76889038 C63.58057568 192.75876407 61.54382386 192.75407335 59.50708008 192.75439453 C56.39023225 192.75002137 53.27480035 192.71370145 50.15820312 192.67578125 C48.17969235 192.66991312 46.20117484 192.6659437 44.22265625 192.6640625 C43.29026627 192.64969147 42.35787628 192.63532043 41.39723206 192.62051392 C40.09084023 192.6297438 40.09084023 192.6297438 38.75805664 192.63916016 C37.99433243 192.63631012 37.23060822 192.63346008 36.44374084 192.63052368 C33.18164266 193.38737399 32.18415874 194.32011481 30.3125 197.125 C29.78468455 200.52741167 29.92571241 203.87629055 30.04199219 207.30957031 C30.06091522 208.3440329 30.07983826 209.37849548 30.09933472 210.44430542 C30.16670921 213.86463 30.26292793 217.28350687 30.359375 220.703125 C30.41170766 223.07391574 30.46224182 225.44474682 30.51104736 227.81561279 C30.64436653 234.05667131 30.80214637 240.29688215 30.96496582 246.53723145 C31.15524048 254.02414656 31.31523614 261.51176207 31.48028564 268.99926758 C31.73445201 280.37521879 32.02715087 291.74959559 32.3125 303.125 C-1.0175 303.125 -34.3475 303.125 -68.6875 303.125 C-68.3575 297.515 -68.0275 291.905 -67.6875 286.125 C-67.54967528 280.08239289 -67.54967528 280.08239289 -67.47280884 274.04084778 C-67.45120211 271.11857094 -67.42576459 268.19641076 -67.39486694 265.2742157 C-67.36138035 262.08937812 -67.32942199 258.90453191 -67.29879761 255.71966553 C-67.01281354 226.48487698 -66.39663528 197.31713008 -64.6875 168.125 C-63.49511719 168.06441406 -62.30273438 168.00382812 -61.07421875 167.94140625 C-59.50780075 167.85698851 -57.94139512 167.77234113 -56.375 167.6875 C-55.58931641 167.64818359 -54.80363281 167.60886719 -53.99414062 167.56835938 C-53.23681641 167.52646484 -52.47949219 167.48457031 -51.69921875 167.44140625 C-51.00272217 167.40474854 -50.30622559 167.36809082 -49.58862305 167.33032227 C-47.4658428 167.16918847 -47.4658428 167.16918847 -44.6875 166.125 C-46.68875805 151.30866848 -72.37598553 132.51261851 -83.5234375 123.75390625 C-84.23757812 123.21636719 -84.95171875 122.67882812 -85.6875 122.125 C-86.38101563 121.55652344 -87.07453125 120.98804687 -87.7890625 120.40234375 C-94.8900804 115.62449837 -106.74447944 130.59269689 -111.6875 135.125 Z " fill="#00B660" transform="translate(307.6875,4.875)"/>
</svg>
