<?xml version="1.0" encoding="UTF-8"?>
<svg version="1.1" xmlns="http://www.w3.org/2000/svg" width="2000" height="1413">
<path d="M0 0 C1.94343949 -0.00239698 3.88687806 -0.00566671 5.83031482 -0.0097166 C11.12864798 -0.01826235 16.42690949 -0.01454137 21.7252436 -0.00866088 C27.50561166 -0.00446484 33.28596726 -0.01190701 39.06633222 -0.01781338 C49.18354194 -0.02655295 59.30073141 -0.02789549 69.41794395 -0.02431011 C80.26488659 -0.02047631 91.11181547 -0.02090486 101.9587574 -0.02661991 C102.64588011 -0.02697874 103.33300283 -0.02733756 104.04094744 -0.02770726 C106.83986666 -0.0291823 109.63878585 -0.03068672 112.43770503 -0.03222873 C140.79883053 -0.04783513 169.15994701 -0.0505458 197.52107604 -0.04807267 C201.43531105 -0.04773419 205.34954606 -0.0474121 209.26378107 -0.04710698 C210.43009688 -0.04701542 210.43009688 -0.04701542 211.61997462 -0.046922 C228.8764386 -0.04564834 246.13290135 -0.04825472 263.38936497 -0.05163305 C267.33351025 -0.0524038 271.27765552 -0.05314854 275.2218008 -0.05389806 C276.8048369 -0.05419976 278.387873 -0.05450164 279.9709091 -0.05480371 C280.75561149 -0.05495338 281.54031388 -0.05510306 282.34879512 -0.05525728 C283.93608165 -0.05556081 285.52336818 -0.0558655 287.11065471 -0.05617132 C332.13068012 -0.06484062 377.15070445 -0.06949097 422.17073059 -0.06522369 C423.00380942 -0.06514564 423.83688826 -0.06506758 424.69521191 -0.06498716 C433.98421633 -0.06411441 443.27322076 -0.06318515 452.56222518 -0.06223653 C453.40083145 -0.06215102 454.23943772 -0.06206551 455.10345631 -0.06197741 C462.07018136 -0.06126675 462.07018136 -0.06126675 465.27757918 -0.06093518 C518.90919274 -0.05540028 572.54078908 -0.06294059 626.17239952 -0.08170605 C639.68599316 -0.08642856 653.19958681 -0.09110921 666.71318054 -0.09554291 C667.96144171 -0.09595289 667.96144171 -0.09595289 669.23492027 -0.09637116 C694.89821485 -0.10474728 720.56150799 -0.10942257 746.22480392 -0.11025047 C747.030954 -0.11027684 747.83710407 -0.11030321 748.66768293 -0.11033037 C766.36766266 -0.11087125 784.06764227 -0.11049849 801.76762197 -0.10929066 C808.10149725 -0.10886506 814.43537255 -0.10849993 820.76924784 -0.10816122 C822.34484294 -0.10807591 823.92043804 -0.10798698 825.49603315 -0.1078944 C850.55969801 -0.10644804 875.62335115 -0.11355618 900.6870132 -0.12489836 C926.64497915 -0.13656916 952.60292422 -0.13708937 978.56089027 -0.12505493 C981.35406307 -0.12380321 984.14723588 -0.12259971 986.94040871 -0.12143421 C987.96858675 -0.12099877 987.96858675 -0.12099877 989.01753607 -0.12055453 C1000.48348779 -0.11598447 1011.94940314 -0.12321187 1023.41535024 -0.13364345 C1033.41532389 -0.14190553 1043.41525641 -0.13916757 1053.41522673 -0.12766818 C1059.10426985 -0.12142924 1064.79320573 -0.11976555 1070.48224254 -0.13153151 C1142.86482815 -0.27084835 1209.97472194 14.94897766 1266.84378624 62.25447559 C1267.34813194 62.66858692 1267.85247765 63.08269825 1268.37210655 63.50935841 C1282.10256441 74.81341893 1294.99736546 87.12410389 1305.84378624 101.25447559 C1306.84545755 102.51693506 1307.84813846 103.77859386 1308.85159874 105.03963184 C1347.39190431 153.90467636 1367.01726877 213.58437282 1366.98422813 275.55540943 C1366.98681564 277.50651685 1366.98982987 279.45762374 1366.99323153 281.40872991 C1367.00125975 286.74717197 1367.00308877 292.08560056 1367.003829 297.42404795 C1367.00568692 303.19126301 1367.01323804 308.9584712 1367.01996422 314.72568226 C1367.0335193 327.32755422 1367.03956812 339.92942299 1367.04397488 352.53130102 C1367.04674262 360.40988609 1367.05098099 368.28846993 1367.05547905 376.16705418 C1367.06766905 398.00799011 1367.07800355 419.84892491 1367.08135414 441.68986416 C1367.08157577 443.10062505 1367.08179755 444.51138593 1367.08201949 445.92214682 C1367.08224013 447.33616818 1367.08246061 448.75018955 1367.08268094 450.16421092 C1367.08312347 453.00061425 1367.08357059 455.83701758 1367.08402061 458.67342091 C1367.08413001 459.37667681 1367.0842394 460.07993272 1367.0843521 460.80449942 C1367.08797853 483.58094274 1367.10388442 506.35735415 1367.12721098 529.13378526 C1367.15187204 553.25771361 1367.16552993 577.38162374 1367.16672206 601.50556505 C1367.16763602 614.63846578 1367.17331749 627.77132474 1367.19154167 640.90421391 C1367.20701294 652.09224094 1367.21202202 663.28021327 1367.20380357 674.46824898 C1367.19992153 680.16664442 1367.20070559 685.86492996 1367.21486092 691.56331158 C1367.40677839 773.67225581 1345.61668878 846.0524391 1287.84378624 906.25447559 C1286.99042686 907.14908497 1286.13706749 908.04369434 1285.25784874 908.96541309 C1279.48050077 914.88856164 1273.3332362 920.13122562 1266.84378624 925.25447559 C1265.74935609 926.13905142 1264.65563171 927.024501 1263.56253624 927.91072559 C1213.72855744 968.05614421 1152.29565695 987.46014574 1088.72045803 987.38311005 C1086.79165201 987.38445836 1084.86284625 987.38624319 1082.93404099 987.38842228 C1077.63909133 987.39313807 1072.34415894 987.39165522 1067.04920844 987.38914451 C1061.28647295 987.38750852 1055.5237411 987.3916547 1049.76100677 987.39505368 C1039.66249755 987.40020439 1029.56399312 987.40162545 1019.46548271 987.40059757 C1008.63292557 987.39949767 997.80037201 987.40051106 986.9678154 987.40417004 C986.28285958 987.40439969 985.59790377 987.40462934 984.89219172 987.40486595 C982.10231856 987.40580763 979.3124454 987.40676332 976.52257224 987.40773715 C947.43725131 987.4178747 918.3519323 987.42094288 889.2666098 987.42152926 C886.13707368 987.42159401 883.00753757 987.42166194 879.87800145 987.42173266 C879.10137184 987.42174967 878.32474222 987.42176667 877.52457837 987.42178419 C860.30464909 987.42219287 843.08472017 987.42438353 825.86479108 987.42688851 C818.77128594 987.42791689 811.6777808 987.42890693 804.58427566 987.42990476 C803.8004701 987.43001535 803.01666454 987.43012594 802.2091073 987.43023988 C757.29921755 987.43656307 712.38932804 987.44068909 667.47943783 987.44023132 C665.79914728 987.44021554 664.11885674 987.44019981 662.4385662 987.44018411 C654.85242325 987.44011073 647.2662803 987.44002256 639.68013736 987.43993023 C636.29737972 987.43988911 632.91462208 987.43984896 629.53186444 987.43980892 C627.83873405 987.43978852 626.14560366 987.4397675 624.45247327 987.43974586 C570.92446084 987.43906575 517.39645502 987.44638095 463.86844444 987.46028614 C450.3835052 987.46378728 436.89856596 987.4672568 423.41362667 987.47055054 C422.58325762 987.47075341 421.75288857 987.47095629 420.89735683 987.47116531 C395.29506011 987.47738255 369.69276394 987.48114631 344.0904665 987.48240852 C343.28637553 987.48244847 342.48228456 987.48248843 341.6538272 987.48252959 C324.00002109 987.48338296 306.34621501 987.48364403 288.69240888 987.48335921 C282.37514119 987.48326273 276.05787349 987.48321068 269.7406058 987.48318048 C268.16908484 987.48317257 266.59756389 987.48316236 265.02604294 987.48314986 C240.01028881 987.48297371 214.99454035 987.48866448 189.97878784 987.49730367 C164.77451795 987.50596371 139.57025591 987.50813623 114.36598516 987.50154235 C110.87811234 987.50063014 107.39023949 987.49978684 103.90236664 987.49898434 C103.21869238 987.49882425 102.53501813 987.49866416 101.83062647 987.49849922 C90.37900722 987.49600986 78.92740455 987.50140922 67.47578786 987.50893389 C57.49753837 987.51493603 47.51930687 987.51363578 37.54105821 987.50646339 C31.86019665 987.5025839 26.17938314 987.50180047 20.49852497 987.50992074 C15.31821702 987.51726041 10.13799661 987.51519238 4.9576924 987.50599687 C3.10714922 987.50429247 1.25659897 987.5058477 -0.59393697 987.51129808 C-18.34456322 987.56002685 -36.07692219 986.43449285 -53.53121376 983.06697559 C-55.21464882 982.74660328 -55.21464882 982.74660328 -56.93209267 982.4197588 C-101.12229851 973.65935327 -142.53113495 954.05671833 -177.15621376 925.25447559 C-177.66055946 924.84036427 -178.16490517 924.42625294 -178.68453407 923.99959278 C-192.41499193 912.69553225 -205.30979299 900.38484729 -216.15621376 886.25447559 C-217.15788507 884.99201613 -218.16056598 883.73035732 -219.16402626 882.46931934 C-237.83980401 858.79040197 -252.06426768 832.66374575 -262.15621376 804.25447559 C-262.44190224 803.45654591 -262.72759071 802.65861622 -263.02193642 801.83650684 C-266.44273039 792.12054471 -269.01822217 782.22214808 -271.34371376 772.19197559 C-271.70082436 770.69779102 -271.70082436 770.69779102 -272.06514931 769.17342091 C-277.91698974 742.77963095 -277.59567233 716.1641568 -277.54838777 689.29089856 C-277.54152626 683.50892598 -277.55211324 677.72697931 -277.56032753 671.94501209 C-277.57359219 660.65272844 -277.57081976 649.36050497 -277.56208961 638.06821907 C-277.55528464 628.8818916 -277.55440843 619.69558087 -277.55766106 610.50925159 C-277.55812076 609.19643382 -277.55858045 607.88361604 -277.55905408 606.5310159 C-277.55977284 604.53207659 -277.56049164 602.53313728 -277.56123476 600.53419797 C-277.57038532 575.62170237 -277.56213351 550.70923938 -277.54594407 525.79674882 C-277.5317102 503.72583689 -277.53298421 481.65497692 -277.54732704 459.58406544 C-277.56343579 434.71339132 -277.56973603 409.84274596 -277.56049025 384.97206736 C-277.55953471 382.31461144 -277.5585916 379.65715552 -277.55766106 376.99969959 C-277.55719823 375.69254719 -277.5567354 374.38539479 -277.55625855 373.03863171 C-277.55367997 363.87481914 -277.5580151 354.71102515 -277.56509972 345.54721546 C-277.57355702 334.36317953 -277.57114634 323.17920667 -277.55525748 311.99517787 C-277.5474313 306.30074162 -277.54418536 300.60641012 -277.55420494 294.91197491 C-277.67354634 220.77015469 -261.20966284 152.51985587 -211.15621376 95.25447559 C-210.69440712 94.72499317 -210.23260048 94.19551075 -209.7567997 93.64998341 C-206.6389 90.10620237 -203.42866146 86.65605638 -200.15621376 83.25447559 C-199.60820107 82.68454884 -199.06018837 82.11462208 -198.49556923 81.52742481 C-191.10891235 73.89337781 -183.56707567 66.76841971 -175.15621376 60.25447559 C-174.1752372 59.46814747 -173.19426064 58.68181934 -172.18355751 57.87166309 C-137.45746889 30.24343434 -95.57683432 12.21375867 -52.09371376 4.00447559 C-51.30521034 3.85325245 -50.51670692 3.7020293 -49.70430946 3.54622364 C-33.26479186 0.65473634 -16.65403655 -0.04346608 0 0 Z M-127.15621376 167.25447559 C-157.36628011 201.6859414 -167.33343195 244.03568219 -167.28992653 288.76657581 C-167.29179823 290.60747827 -167.29410036 292.44838034 -167.29679185 294.28928179 C-167.3028719 299.31361606 -167.30278076 304.3379336 -167.30159748 309.36227071 C-167.3013925 314.79465416 -167.30692142 320.22703237 -167.31165504 325.65941334 C-167.31994139 336.28990017 -167.32270898 346.92038146 -167.32326742 357.55087126 C-167.32374356 366.19738333 -167.32580316 374.84389359 -167.32896805 383.49040508 C-167.33776925 408.03718821 -167.34238828 432.58396697 -167.34163757 457.13075168 C-167.34161763 457.79138781 -167.34159768 458.45202393 -167.34157713 459.13267934 C-167.3415367 460.46864539 -167.3414949 461.80461145 -167.34145174 463.1405775 C-167.34083935 483.91382072 -167.34834121 504.6870476 -167.36202431 525.46028614 C-167.37740195 548.83694955 -167.385976 572.21360215 -167.38506109 595.59027094 C-167.38472986 607.95334837 -167.38744402 620.31640737 -167.39823914 632.67948055 C-167.40737302 643.20700458 -167.40949576 653.73450182 -167.40272971 664.26202811 C-167.399479 669.62562649 -167.39935505 674.98917358 -167.40808296 680.35276699 C-167.4160135 685.27731385 -167.41445058 690.20176929 -167.40579883 695.1263141 C-167.40427812 696.89341814 -167.40602496 698.66052923 -167.41165891 700.42762495 C-167.54966287 746.84361442 -155.12303899 789.57284567 -123.15621376 824.25447559 C-122.47703896 824.99939259 -122.47703896 824.99939259 -121.78414345 825.75935841 C-95.41348729 854.3600912 -57.7883788 872.44518646 -19.15621376 876.25447559 C-16.41214456 876.34194152 -13.69466805 876.39031883 -10.95171946 876.38212609 C-10.16054114 876.38377687 -9.36936282 876.38542765 -8.55420939 876.38712845 C-5.90562473 876.39143902 -3.25709606 876.38865667 -0.60851002 876.38590336 C1.3187873 876.38755367 3.24608428 876.38964026 5.1733807 876.39212346 C10.48743037 876.39769117 15.80146392 876.3970175 21.11551557 876.39534587 C26.89022103 876.39461521 32.66492192 876.39963669 38.43962544 876.40392089 C49.23258388 876.41106235 60.02553784 876.41364913 70.81849847 876.41414818 C81.01963441 876.41466575 91.22076695 876.41752806 101.4219017 876.42246342 C102.10823538 876.42279355 102.79456906 876.42312368 103.50170072 876.42346382 C106.29704717 876.42481383 109.09239361 876.4261765 111.88774004 876.42755593 C144.98061504 876.44385735 178.07348933 876.4502445 211.16636766 876.4550038 C227.64640718 876.45738726 244.1264463 876.4610908 260.60648551 876.46504089 C313.47431206 876.47770562 366.34213859 876.48848922 419.20996664 876.49188135 C421.73672598 876.49204359 424.26348531 876.49220915 426.79024465 876.49237574 C431.85766743 876.49270953 436.92509022 876.49304001 441.992513 876.49337029 C447.9251844 876.49375719 453.85785579 876.4941468 459.79052719 876.49454136 C461.48850349 876.49465378 463.18647978 876.4947652 464.88445608 876.49487561 C519.40978865 876.49842454 573.93510804 876.51350071 628.46043559 876.53681336 C667.64073792 876.55355836 706.82103777 876.56903147 746.00134373 876.57354832 C746.80736276 876.5736418 747.6133818 876.57373529 748.44382566 876.57383161 C766.13937153 876.57585081 783.83491735 876.57700673 801.53046333 876.57736019 C807.8626182 876.57749636 814.19477307 876.57770536 820.52692794 876.57795345 C822.10218816 876.57801501 823.67744838 876.57807333 825.2527086 876.57812839 C850.33850453 876.57904765 875.4242867 876.58900919 900.5100781 876.60358588 C925.78404386 876.61821312 951.05799273 876.62323675 976.33196197 876.61516634 C979.82806099 876.61405103 983.32416003 876.61304035 986.82025909 876.61209202 C987.8482117 876.61180707 987.8482117 876.61180707 988.89693102 876.61151636 C1000.385364 876.60862197 1011.87375894 876.61758637 1023.36218506 876.62973143 C1033.36681267 876.63947957 1043.37140073 876.63830471 1053.37602798 876.6282952 C1059.07452227 876.62290205 1064.77290818 876.62219684 1070.4713935 876.63480392 C1075.66426803 876.64619633 1080.85694663 876.64356004 1086.04981458 876.63013685 C1087.90826982 876.62771836 1089.76674042 876.6302314 1091.62517869 876.63853332 C1107.3377083 876.70406083 1122.9271895 875.34099653 1137.96878624 870.50447559 C1139.2042318 870.1171526 1139.2042318 870.1171526 1140.46463585 869.72200489 C1166.8952382 861.23707255 1188.85941823 847.44494405 1208.84378624 828.25447559 C1209.39993614 827.72241505 1209.95608604 827.1903545 1210.52908897 826.64217091 C1234.34002638 803.42511247 1248.90807472 771.57748598 1254.59378624 739.12947559 C1254.76756798 738.14684742 1254.76756798 738.14684742 1254.94486046 737.14436817 C1257.11069749 723.48838659 1256.99116403 709.53780964 1256.97749901 695.74983692 C1256.97937169 693.93409522 1256.98167419 692.11835393 1256.98436433 690.30261326 C1256.99043234 685.35699889 1256.99035469 680.41140155 1256.98916996 675.46578431 C1256.98896467 670.11449729 1256.99449683 664.76321555 1256.99922752 659.41193104 C1257.00750728 648.94380845 1257.01028116 638.4756915 1257.0108399 628.00756592 C1257.01131636 619.49127621 1257.01337756 610.97498835 1257.01654053 602.45869923 C1257.02533999 578.27095455 1257.02996104 554.08321429 1257.02921005 529.895468 C1257.0291701 528.59355476 1257.02913014 527.29164153 1257.02908897 525.95027637 C1257.02904809 524.64675874 1257.02900721 523.3432411 1257.02896509 522.00022292 C1257.02855888 500.88807082 1257.03812406 479.77593657 1257.05222734 458.66378963 C1257.0666209 436.9443276 1257.07349588 415.22487425 1257.07263356 393.50540733 C1257.07230261 381.32838212 1257.07500492 369.15137563 1257.08581161 356.97435474 C1257.09495593 346.60470138 1257.09705979 336.23507523 1257.09030219 325.86541957 C1257.08705666 320.58447121 1257.08690836 315.30357492 1257.09565544 310.02263165 C1257.18438835 252.67593011 1250.69381759 201.98125341 1208.84378624 159.25447559 C1208.08581749 158.44623341 1207.32784874 157.63799122 1206.54691124 156.80525684 C1181.63186735 130.75357774 1142.09571407 112.28546596 1105.88461899 111.12791375 C1104.46678107 111.12213983 1103.04891459 111.12167645 1101.63107055 111.12567443 C1100.8390003 111.12389942 1100.04693004 111.12212441 1099.23085766 111.12029561 C1096.57922804 111.11556819 1093.92765312 111.11792557 1091.276021 111.12025452 C1089.34652326 111.11830071 1087.41702591 111.11591154 1085.48752919 111.11312655 C1080.16734344 111.10672695 1074.8471728 111.10656489 1069.52698394 111.10740396 C1063.74556636 111.10723445 1057.9641542 111.1013282 1052.18273932 111.09616309 C1041.37708913 111.08737835 1030.57144277 111.08316051 1019.76578938 111.08104576 C1009.55253821 111.07900313 999.33929076 111.07462628 989.12604141 111.06819439 C988.43888978 111.06776378 987.75173814 111.06733316 987.04376373 111.0668895 C984.2450772 111.06513112 981.44639067 111.06336147 978.64770416 111.06157648 C944.72520379 111.039983 910.80270262 111.02909835 876.88019695 111.02010024 C865.87797915 111.01716563 854.87576155 111.01379565 843.87354398 111.01013303 C843.09720279 111.00987474 842.3208616 111.00961645 841.52099491 111.00935033 C838.38006387 111.00830408 835.23913284 111.00725565 832.0982018 111.00620451 C778.36756545 110.98823911 724.63692877 110.97286131 670.90628984 110.96544547 C666.68618877 110.96486151 662.46608769 110.96426424 658.24598661 110.96366786 C657.40886236 110.96354974 656.5717381 110.96343162 655.70924645 110.96330992 C647.22816797 110.96211255 638.7470895 110.96090379 630.26601103 110.95967739 C628.56554537 110.95943215 626.86507972 110.9591883 625.16461406 110.95894582 C570.56992396 110.95115869 515.97525538 110.92878139 461.38057468 110.89626939 C422.15095158 110.8729154 382.92133277 110.85136796 343.69170284 110.84426308 C342.4808477 110.84404255 342.4808477 110.84404255 341.24553083 110.84381756 C323.52215664 110.84063231 305.79878249 110.83858171 288.07540804 110.83759001 C280.94364614 110.83717529 273.81188426 110.83662039 266.68012238 110.8360281 C265.89961504 110.83596743 265.11910771 110.83590676 264.31494864 110.83584425 C239.19957368 110.83383037 214.08422415 110.81960735 188.96885806 110.7990831 C163.65973472 110.77847393 138.35064075 110.77062267 113.04150987 110.78016086 C109.53852228 110.78147919 106.03553466 110.78265727 102.532547 110.78375149 C101.84591025 110.78397134 101.1592735 110.78419118 100.45182958 110.78441769 C88.95327705 110.78771171 77.45479308 110.77520353 65.95625375 110.75842222 C55.93522382 110.74490363 45.91426329 110.74600056 35.89323266 110.75882417 C30.18862552 110.76571362 24.48421119 110.76641482 18.77962136 110.74926408 C-38.84163668 110.58696401 -87.14725717 123.39522989 -127.15621376 167.25447559 Z " fill="#F1B800" transform="translate(455.156213760376,212.7455244064331)"/>
<path d="M0 0 C0.680625 0.55171875 1.36125 1.1034375 2.0625 1.671875 C3.38873607 2.76479176 4.69774634 3.8786149 6 5 C9.75431257 3.68500436 12.31626799 2.09708921 15.3125 -0.5 C48.61606046 -27.6635235 92.44188928 -38.42511124 134.78515625 -34.5390625 C178.0455334 -29.6957395 218.39362818 -7.99586151 245.6796875 25.99609375 C270.30026884 57.87021336 282.07701386 94.16993601 282.17700195 134.39941406 C282.18685875 136.16302528 282.18685875 136.16302528 282.19691467 137.96226501 C282.2164596 141.81338587 282.22826587 145.66446816 282.23828125 149.515625 C282.24233873 150.85504931 282.24645591 152.19447345 282.25063133 153.5338974 C282.26961566 159.82899059 282.28386371 166.12407253 282.2922433 172.41918874 C282.30200769 179.63027151 282.32833477 186.84104671 282.36874419 194.05202127 C282.39909713 199.66520804 282.41372991 205.2783075 282.41702431 210.89157462 C282.41935179 214.2265956 282.4300526 217.5610251 282.45348549 220.89600372 C282.60069518 243.22814984 281.63392327 262.64010628 265.484375 279.7109375 C254.18868414 290.11860235 239.28963395 295.63040621 223.9765625 295.2421875 C206.86501207 293.84990912 193.21363687 286.63805431 182.00390625 273.6953125 C172.99161994 261.87274336 170.85131869 248.58563222 170.8581543 234.15820312 C170.85294266 232.37645691 170.85294266 232.37645691 170.84762573 230.55871582 C170.84028256 227.98222825 170.83492952 225.40573442 170.83133507 222.82923889 C170.8253902 218.74187052 170.80881481 214.65458766 170.78999329 210.56726074 C170.7836564 209.16336828 170.77733078 207.75947576 170.77101612 206.35558319 C170.76785031 205.65262084 170.7646845 204.94965849 170.76142275 204.22539425 C170.7194972 194.7186375 170.68641311 185.21192116 170.67407227 175.70507812 C170.6656479 169.28104666 170.64299627 162.85722822 170.6047166 156.43330336 C170.5851003 153.04249111 170.57250256 149.6519962 170.57755089 146.26112366 C170.59095544 124.80507913 169.51640355 107.54756554 154.26171875 91.1015625 C142.31060555 79.99672847 128.50997669 76.47171911 112.66015625 76.71875 C98.01071776 77.31534697 85.936258 84.67375235 76 95 C69.18693453 103.22625591 63.90210434 114.27712175 63.85523987 125.06982422 C63.84834137 126.09292191 63.84144287 127.11601959 63.83433533 128.17012024 C63.83172195 129.28702744 63.82910858 130.40393463 63.82641602 131.5546875 C63.819729 132.73568527 63.81304199 133.91668304 63.80615234 135.13346863 C63.78842387 138.37153312 63.77487247 141.60958689 63.7625401 144.84767532 C63.74806452 148.24670397 63.72655729 151.6456858 63.70530701 155.04467773 C63.63424443 166.61746353 63.5745324 178.1902941 63.52319336 189.76318359 C63.49475736 196.15636268 63.45930052 202.54946627 63.41653961 208.94256592 C63.39429845 212.31984713 63.37572311 215.69705926 63.36609077 219.07440186 C63.35385144 222.85309334 63.32966348 226.63154293 63.30297852 230.41015625 C63.30238937 231.5108696 63.30180023 232.61158295 63.30119324 233.74565125 C63.14461832 250.59254487 59.32343103 265.13334157 48 278 C36.87216647 288.85765851 23.18283836 294.84744085 7.5625 295.375 C-8.49893128 294.81471751 -21.97422626 289.17488093 -33.30078125 277.921875 C-42.40213195 268.06976165 -48.09933726 255.30857084 -48.13803101 241.7719574 C-48.14348434 240.73907089 -48.14893768 239.70618439 -48.15455627 238.64199829 C-48.1555986 237.51933563 -48.15664093 236.39667297 -48.15771484 235.23999023 C-48.16279556 234.04909286 -48.16787628 232.8581955 -48.17311096 231.63121033 C-48.18659948 228.37047488 -48.19599633 225.10975272 -48.20452833 221.84900165 C-48.21528472 218.42462186 -48.23386017 215.00028837 -48.25234985 211.57594299 C-48.31411142 199.92037708 -48.36817218 188.26481577 -48.40136719 176.60913086 C-48.41979146 170.16794065 -48.44882645 163.72688663 -48.4893719 157.2857967 C-48.51031622 153.88390645 -48.52588107 150.48218689 -48.52817917 147.08022881 C-48.53311547 143.27520895 -48.55634552 139.47068891 -48.58349609 135.66577148 C-48.58048996 134.55727844 -48.57748383 133.4487854 -48.5743866 132.30670166 C-48.73922488 116.66502223 -53.605874 102.65789094 -64.515625 91.25390625 C-77.77741858 79.2223734 -92.38454121 76.14145129 -109.68701172 76.81640625 C-114.84510757 77.22583079 -119.34119957 78.8410437 -124 81 C-124.78375 81.350625 -125.5675 81.70125 -126.375 82.0625 C-139.1326091 88.44130455 -148.69283775 99.63837157 -153.32265186 113.0407629 C-156.63357725 124.08750773 -155.68380578 136.03632264 -155.63671875 147.44140625 C-155.64477358 150.0993213 -155.6549673 152.75713859 -155.66816711 155.4150238 C-155.69514085 161.67007927 -155.69884189 167.92489148 -155.69239408 174.17999357 C-155.68140998 185.36665456 -155.70639673 196.55324152 -155.74614173 207.73982853 C-155.76113149 212.27670708 -155.7575662 216.81334728 -155.74919128 221.35023499 C-155.75433555 243.45456427 -156.61559075 261.65266772 -172 279 C-182.65490265 289.37949321 -196.58139604 294.873252 -211.4375 295.375 C-227.50102397 294.81464451 -240.96759062 289.17217089 -252.30078125 277.92578125 C-261.25354458 268.22155588 -267.09832066 255.86086435 -267.14044189 242.52880859 C-267.14615204 241.4416153 -267.15186218 240.354422 -267.15774536 239.23428345 C-267.15886322 238.05095428 -267.15998108 236.86762512 -267.16113281 235.6484375 C-267.16609772 234.3939682 -267.17106262 233.1394989 -267.17617798 231.84701538 C-267.18927241 228.40799509 -267.19574336 224.96899432 -267.20018864 221.529953 C-267.20312945 219.37173201 -267.20723653 217.21351621 -267.21169281 215.05529785 C-267.22537165 208.2758868 -267.23503147 201.49648779 -267.2388947 194.7170639 C-267.24335023 186.94399726 -267.26077866 179.17110868 -267.2898953 171.39809608 C-267.31170878 165.36034618 -267.32160963 159.32264558 -267.32293582 153.2848568 C-267.32397168 149.69429029 -267.32961081 146.10389097 -267.34775543 142.5133667 C-267.44169402 122.80198522 -267.08081289 103.19430529 -261.25 84.1875 C-260.99323486 83.32479492 -260.73646973 82.46208984 -260.47192383 81.57324219 C-257.9581386 73.39909303 -254.75969096 65.67175035 -251 58 C-250.67161133 57.31486328 -250.34322266 56.62972656 -250.00488281 55.92382812 C-242.13248436 39.64074757 -231.4952464 25.98487204 -219 13 C-218.38382812 12.32066406 -217.76765625 11.64132812 -217.1328125 10.94140625 C-206.14794062 -0.80020125 -192.24920155 -9.7635134 -178 -17 C-177.38447266 -17.31662598 -176.76894531 -17.63325195 -176.13476562 -17.95947266 C-120.33469658 -46.34872139 -48.74882776 -39.68654568 0 0 Z " fill="#F1B800" transform="translate(664,467)"/>
<path d="M0 0 C1.81574555 -0.00418145 3.63148848 -0.00966338 5.44722664 -0.01631981 C10.39726134 -0.0306867 15.3471283 -0.02655729 20.29717183 -0.019153 C25.65108221 -0.01440183 31.00495731 -0.02694832 36.3588562 -0.03717041 C46.83213527 -0.05432548 57.30535425 -0.05520528 67.77864371 -0.04995751 C76.29502285 -0.04590855 84.8113843 -0.04736797 93.3277626 -0.05270576 C94.54198091 -0.05345419 95.75619922 -0.05420261 97.00721202 -0.05497371 C99.47425158 -0.05650526 101.94129114 -0.05804361 104.40833069 -0.05958868 C127.51915861 -0.07330173 150.62995263 -0.06788435 173.74077977 -0.05640347 C194.86098371 -0.04647166 215.98110003 -0.05941302 237.10129045 -0.08333766 C258.8150448 -0.10774839 280.52875838 -0.11733171 302.24252617 -0.11068493 C314.42215595 -0.1071972 326.60171837 -0.1093954 338.78133774 -0.12693596 C349.14905033 -0.14168257 359.51664811 -0.14226117 369.88435851 -0.12486505 C375.16853602 -0.11637313 380.45250863 -0.11416127 385.73667526 -0.1295166 C390.58397436 -0.14342748 395.43089427 -0.13851883 400.27817179 -0.11927737 C402.02162028 -0.11553661 403.76509962 -0.11838308 405.50852047 -0.12888902 C426.02579561 -0.24363032 444.15785357 3.52284106 459.45803833 18.2040863 C460.16702271 18.92467224 460.87600708 19.64525818 461.60647583 20.38768005 C462.19171021 20.97420349 462.77694458 21.56072693 463.37991333 22.1650238 C472.90635232 32.44100495 476.27375725 45.91205054 475.95413208 59.61424255 C474.58545197 74.46980418 467.43857687 87.45410865 456.19534302 97.12400818 C440.6048481 109.5235782 422.97039708 111.54859993 403.73538208 111.50120544 C402.12831118 111.50092306 400.52124014 111.50108231 398.91416931 111.50164795 C394.56972887 111.50193392 390.22531626 111.49606963 385.88088226 111.48907399 C381.33384849 111.48280704 376.78681403 111.48223401 372.23977661 111.48104858 C363.63749845 111.47794511 355.03523306 111.469745 346.43296051 111.45969909 C336.63610703 111.44850738 326.83925293 111.44301981 317.04239464 111.43800366 C296.89708125 111.42756155 276.75177935 111.40998119 256.60647583 111.38768005 C256.610163 112.24906586 256.61385017 113.11045166 256.61764908 113.99794006 C256.70622249 135.01673097 256.77229324 156.03548944 256.81372452 177.0544281 C256.83429607 187.21929147 256.86231256 197.38402979 256.90823364 207.54881287 C256.94826773 216.41476341 256.97394788 225.28062333 256.98282981 234.14666176 C256.98801666 238.83545282 257.00009317 243.52398475 257.02939606 248.21269226 C257.05682792 252.63846058 257.06486562 257.06386649 257.05890656 261.48971176 C257.05999452 263.10201878 257.06778139 264.7143397 257.08329773 266.32657242 C257.25703652 285.33371716 253.37553179 300.87774627 240.00881958 315.06736755 C228.46159944 326.22029237 213.96568102 330.79277512 198.10256958 330.5947113 C182.65475087 329.67992427 168.98859445 322.84822297 158.60647583 311.38768005 C147.19465752 296.39869562 145.29151724 280.98180665 145.37942505 262.71702576 C145.37999022 261.06025194 145.37967053 259.40347763 145.37854004 257.7467041 C145.37796968 253.28051111 145.38967239 248.81442704 145.40368795 244.34825921 C145.41624841 239.66911904 145.41736998 234.98997596 145.41973877 230.31082153 C145.42593799 221.46425533 145.44232759 212.61773896 145.46243775 203.77119464 C145.48484542 193.69375014 145.49580239 183.61630317 145.50582862 173.53883994 C145.52669529 152.8217589 145.56184078 132.10472263 145.60647583 111.38768005 C144.78024436 111.39044543 143.95401289 111.39321081 143.1027441 111.39605999 C122.94384381 111.46248357 102.78496253 111.51204003 82.62597561 111.54311657 C72.87700391 111.55854667 63.12810553 111.57956193 53.37918091 111.61399841 C44.87617839 111.64401941 36.373229 111.66328305 27.87017494 111.66994554 C23.37317036 111.6738364 18.87631771 111.68289885 14.37936211 111.70487022 C10.13502769 111.72543668 5.89090585 111.73147375 1.64652634 111.7270031 C0.09992245 111.72781938 -1.44668954 111.73366381 -2.99324989 111.74529648 C-22.6944907 111.88604475 -39.82318833 108.14052655 -55.39352417 95.38768005 C-56.04063354 94.8668988 -56.68774292 94.34611755 -57.35446167 93.80955505 C-67.40100412 84.80858037 -72.38567816 71.71090273 -73.66696167 58.5868988 C-74.20349753 44.32742658 -69.32777568 31.83680091 -60.08102417 21.13768005 C-43.25675906 3.4456076 -23.33722561 -0.08840016 0 0 Z " fill="#F1B800" transform="translate(1127.3935241699219,650.6123199462891)"/>
<path d="M0 0 C1.40108704 -0.00302538 2.80217243 -0.00691679 4.20325494 -0.01159257 C8.03019674 -0.02183174 11.85704444 -0.0197012 15.68399382 -0.01541197 C19.82046729 -0.01293727 23.95691854 -0.0219682 28.09338379 -0.02944946 C36.18872891 -0.04217837 44.28404082 -0.04399237 52.37939426 -0.0416492 C58.96275432 -0.03986366 65.54610434 -0.04162075 72.1294632 -0.04587364 C73.5368019 -0.04676643 73.5368019 -0.04676643 74.97257169 -0.04767724 C76.87881611 -0.04888904 78.78506053 -0.05010318 80.69130495 -0.05131962 C98.55619122 -0.06218845 116.4210586 -0.06003593 134.28594592 -0.05393478 C150.61032193 -0.04876767 166.93463822 -0.0600168 183.25900242 -0.07903299 C200.0400764 -0.09843059 216.82112216 -0.10666393 233.60220742 -0.10290974 C243.01574687 -0.10100043 252.42923553 -0.10345882 261.84276581 -0.11762428 C269.85780065 -0.12956365 277.87275343 -0.13091447 285.88778946 -0.11883412 C289.97258418 -0.11296299 294.05722899 -0.11179672 298.14201355 -0.12383652 C301.89016586 -0.13475514 305.63804419 -0.13152177 309.38618401 -0.11757483 C311.36565208 -0.11370955 313.34513261 -0.12442601 315.32457137 -0.13587171 C333.08442874 -0.02975183 347.7564047 4.39008713 360.76519775 16.80757141 C371.57300587 28.7570494 376.54840588 42.94564797 376.2300415 58.90132141 C375.02079401 75.40850947 367.93326598 88.22195457 355.98394775 99.26069641 C345.87211677 107.27793384 333.83248991 111.38050349 320.94807053 111.38933086 C319.75445333 111.39255531 318.56083614 111.39577976 317.33104873 111.39910191 C316.0285336 111.39755331 314.72601848 111.39600471 313.3840332 111.39440918 C311.97942425 111.39627819 310.57481582 111.39857925 309.17020822 111.4012745 C305.31512782 111.40738784 301.46006913 111.40725945 297.604985 111.40608013 C293.44534773 111.405876 289.2857174 111.41139604 285.12608337 111.4161377 C276.97806506 111.42444241 268.83005398 111.42719246 260.68203178 111.42775007 C254.05802187 111.42822535 247.43401434 111.43028067 240.81000519 111.4334507 C222.02601231 111.44225702 203.24202515 111.44687014 184.45803019 111.44612022 C183.44548436 111.44608027 182.43293852 111.44604031 181.38970947 111.44599915 C179.86903419 111.44593782 179.86903419 111.44593782 178.31763819 111.44587526 C161.89008845 111.44546887 145.46256164 111.45503688 129.03501853 111.46913751 C112.16369352 111.48350468 95.29237969 111.4904075 78.4210484 111.48954374 C68.9505779 111.48921187 59.48013143 111.49195438 50.00966644 111.50272179 C41.94576147 111.51183129 33.88189143 111.51399835 25.81798354 111.50721236 C21.70538739 111.50394936 17.59285824 111.50388254 13.48026848 111.51256561 C9.71124897 111.52044128 5.94234946 111.51898832 2.17333284 111.51028148 C0.1728251 111.50802593 -1.8276864 111.51556679 -3.8281796 111.52352113 C-20.30421175 111.46059183 -34.41821888 107.30563814 -47.01605225 96.26069641 C-58.99238216 83.95226723 -63.44818709 70.02625445 -63.37957764 53.27095032 C-63.13332623 40.73948989 -59.32994648 31.36960286 -52.01605225 21.26069641 C-51.27355225 20.20882141 -50.53105225 19.15694641 -49.76605225 18.07319641 C-35.7735045 3.76263622 -19.31905648 -0.05685286 0 0 Z " fill="#F1B800" transform="translate(789.0160522460938,869.7393035888672)"/>
<path d="M0 0 C1.42703488 -0.00445668 1.42703488 -0.00445668 2.88289875 -0.0090034 C6.07314074 -0.01768005 9.26334516 -0.01919779 12.45359802 -0.02069092 C14.74025553 -0.0253199 17.02691227 -0.03034467 19.31356812 -0.03573608 C25.52875529 -0.04885617 31.74393166 -0.05530453 37.95913053 -0.05974674 C41.84397034 -0.06267868 45.72880722 -0.06678376 49.61364555 -0.07125092 C60.38052188 -0.08335951 71.14739436 -0.09374112 81.91427708 -0.09712601 C82.9473671 -0.09745536 82.9473671 -0.09745536 84.00132763 -0.09779136 C84.69165945 -0.09800964 85.38199126 -0.09822791 86.09324223 -0.09845281 C87.49200666 -0.09889626 88.89077109 -0.09934283 90.28953552 -0.09979248 C90.98336415 -0.10001391 91.67719277 -0.10023534 92.3920465 -0.10046348 C103.62247488 -0.10440744 114.8528382 -0.12184965 126.08324147 -0.145152 C137.62766977 -0.16891145 149.17205622 -0.18107242 160.71651024 -0.18249393 C167.19242888 -0.18354068 173.6682558 -0.18942095 180.14415169 -0.20731354 C186.24020607 -0.22382866 192.33610013 -0.22593292 198.43216896 -0.21717453 C200.66375407 -0.21640595 202.89534792 -0.22072315 205.12691116 -0.23063278 C224.81667405 -0.31290649 241.41214576 1.43728204 256.34593201 15.79669189 C268.20064632 28.14535264 273.18134885 42.15384246 272.90843201 59.15997314 C271.67621181 74.85537787 265.0258608 87.44734813 253.59593201 98.14044189 C236.93918956 110.87651836 219.756229 111.44111355 199.63963318 111.4151001 C197.41444732 111.41945223 195.18926297 111.42463704 192.96408081 111.43058777 C186.94330604 111.44393555 180.92259422 111.4445611 174.90180755 111.44202447 C169.86480976 111.44095182 164.82782456 111.44584567 159.79082948 111.45062989 C147.2227957 111.46234323 134.65480026 111.46150837 122.08676706 111.45507308 C111.20079146 111.4499068 100.31490542 111.46115561 89.42894753 111.4801713 C78.22106427 111.49959752 67.01321355 111.50750661 55.80531102 111.50404805 C49.52504396 111.50224008 43.24485892 111.50482272 36.96460533 111.51876259 C31.05559035 111.53138859 25.14675388 111.52935175 19.23774147 111.5163517 C17.07794762 111.5139967 14.91814103 111.51668168 12.75836182 111.52497482 C-7.27735706 111.59631817 -26.21996324 110.01134834 -41.44703674 95.29278564 C-52.0466055 83.63537569 -58.12075147 68.86401829 -57.71656799 52.99981689 C-55.86527534 36.06048907 -49.05388815 22.38470203 -36.09547424 11.13653564 C-25.46969344 3.05815057 -13.09464076 -0.01278119 0 0 Z " fill="#F1B800" transform="translate(1330.404067993164,431.85955810546875)"/>
<path d="M0 0 C1.72344383 -0.00744736 1.72344383 -0.00744736 3.48170471 -0.01504517 C7.27223314 -0.02961537 11.06271968 -0.03646105 14.85327148 -0.04199219 C16.83053258 -0.0462925 18.80779368 -0.05059337 20.78505462 -0.05496669 C26.29537903 -0.06675729 31.8056934 -0.07430746 37.31602913 -0.07776189 C44.40487659 -0.08223221 51.49353024 -0.09973984 58.58231884 -0.12876248 C64.08667111 -0.150503 69.59096936 -0.16047278 75.09536403 -0.16180301 C78.37102571 -0.16284265 81.64646526 -0.17005559 84.92209053 -0.18662262 C106.48849177 -0.28789317 125.67362646 -0.01417573 142.16186523 15.81347656 C153.88044713 28.04067746 158.80163299 40.98298664 158.71240234 57.78930664 C158.33165857 73.31101811 151.53075504 86.4869986 140.41186523 97.16113281 C128.17141312 108.51459565 113.53761724 111.46526481 97.33129883 111.45166016 C96.16560364 111.45837738 94.99990845 111.4650946 93.79888916 111.47201538 C89.96931621 111.49091394 86.13991934 111.49491574 82.31030273 111.49707031 C80.30676312 111.50187585 78.30322347 111.50668556 76.29968512 111.51199114 C70.00389507 111.5282188 63.7081621 111.53316544 57.41235352 111.53173828 C50.96055606 111.5305396 44.50909458 111.55159948 38.05738199 111.58322561 C32.48243844 111.60956008 26.90760343 111.62009839 21.33259833 111.61882746 C18.01886074 111.61832263 14.705485 111.62563782 11.39179611 111.64518356 C-10.27934212 111.76102806 -29.2187336 111.10194022 -45.90063477 95.47363281 C-57.76408026 82.92355703 -62.16452803 68.55610087 -61.86157227 51.65332031 C-61.23982854 37.19316184 -54.52849735 23.99851461 -44.02954102 14.19238281 C-30.69414764 3.09733552 -16.90259719 0.01757767 0 0 Z " fill="#F1B800" transform="translate(458.588134765625,869.8388671875)"/>
<path d="M0 0 C1.32376396 -0.0099852 1.32376396 -0.0099852 2.67427063 -0.02017212 C4.52883852 -0.03022176 6.38344202 -0.03499155 8.23803711 -0.03466797 C11.02715873 -0.03902559 13.81467433 -0.0753847 16.60351562 -0.11328125 C35.78587356 -0.234314 50.71064986 3.43245949 65.04296875 16.93359375 C75.89943887 28.17387847 80.78120767 42.48571253 80.5703125 57.99609375 C79.58637859 73.86898992 73.19004479 87.6220592 61.36328125 98.3359375 C46.82325729 109.4059411 31.73211965 111.70130039 13.9765625 111.65161133 C11.63103244 111.64846134 9.28678053 111.67195406 6.94140625 111.69726562 C-11.4188332 111.77525303 -27.66886705 108.69807381 -41.47143555 95.71679688 C-52.44290198 84.82754792 -57.81705616 71.15551617 -57.94921875 55.8359375 C-57.9639373 47.74318738 -56.80774238 40.8546539 -53.63671875 33.3359375 C-53.24742188 32.40523438 -52.858125 31.47453125 -52.45703125 30.515625 C-45.82658507 16.74469832 -33.87739261 7.34502064 -19.63671875 2.3359375 C-13.08682443 0.65967178 -6.74309988 0.01830148 0 0 Z " fill="#F1B800" transform="translate(1084.63671875,431.6640625)"/>
<path d="M0 0 C12.12408906 9.69111188 20.36230688 22.25433277 22.42822266 37.82666016 C23.40766225 54.43946252 20.23378101 69.3136164 9.11572266 82.13916016 C-2.5921382 94.31533545 -15.91797377 100.6509212 -32.88427734 101.13916016 C-48.54867726 100.8086101 -62.00878122 95.12289347 -73.35302734 84.27587891 C-84.28023166 72.21363048 -89.12204856 57.45081928 -88.44677734 41.32666016 C-87.11035964 26.28812065 -80.65916542 13.12893094 -69.57177734 2.82666016 C-49.43248907 -12.4514206 -21.1156128 -15.76291319 0 0 Z " fill="#F1B800" transform="translate(1580.57177734375,880.17333984375)"/>
</svg>
